<svg width="300" height="110" viewBox="0 0 300 110" fill="none" xmlns="http://www.w3.org/2000/svg">
<path d="M75.8667 77.5764C74.8764 78.4991 73.8716 79.3893 72.7728 80.1823C72.6242 80.2896 72.4745 80.3954 72.3237 80.4996C72.1729 80.6038 72.0211 80.7065 71.8682 80.8076C71.7152 80.9087 71.5612 81.0081 71.4063 81.106C71.2513 81.2039 71.0953 81.3002 70.9384 81.3948C70.7814 81.4895 70.6234 81.5825 70.4646 81.6739C70.3057 81.7653 70.1458 81.855 69.9851 81.943C69.8243 82.0311 69.6626 82.1175 69.5 82.2022C69.3375 82.2869 69.1741 82.3699 69.0098 82.4513C68.8455 82.5326 68.6804 82.6122 68.5145 82.6901C68.3486 82.768 68.1819 82.8441 68.0144 82.9186C67.8468 82.993 67.6786 83.0657 67.5096 83.1367C67.3406 83.2077 67.1708 83.2769 67.0004 83.3444C66.83 83.4118 66.6588 83.4775 66.487 83.5413C66.3152 83.6052 66.1428 83.6673 65.9697 83.7277C65.7965 83.788 65.6228 83.8465 65.4486 83.9032C65.2742 83.96 65.0994 84.0149 64.9239 84.0679C64.7485 84.121 64.5725 84.1723 64.396 84.2217C64.2194 84.2712 64.0424 84.3188 63.865 84.3646C63.6875 84.4104 63.5095 84.4543 63.3311 84.4964C63.1527 84.5385 62.9739 84.5787 62.7946 84.6171C62.6154 84.6555 62.4358 84.692 62.2558 84.7266C62.0758 84.7613 61.8954 84.7941 61.7147 84.825C61.5341 84.8559 61.3531 84.885 61.1718 84.9121C60.9905 84.9393 60.809 84.9646 60.6271 84.988C60.4454 85.0114 60.2633 85.0329 60.0811 85.0526C59.8989 85.0722 59.7164 85.09 59.5338 85.1058C59.3512 85.1217 59.1684 85.1356 58.9855 85.1476C58.8026 85.1597 58.6196 85.1699 58.4365 85.1781C58.2533 85.1864 58.0702 85.1928 57.887 85.1973C57.7037 85.2017 57.5204 85.2043 57.3371 85.205C57.1538 85.2056 56.9705 85.2044 56.7872 85.2013C56.6039 85.1982 56.4207 85.1932 56.2375 85.1862C55.5937 85.167 54.9519 85.1212 54.312 85.0487C53.672 84.9762 53.0361 84.8773 52.4043 84.752C51.6764 84.609 50.9559 84.4121 50.2274 84.2779C43.192 82.1936 37.7075 78.0987 34.183 71.6087C33.9801 71.2373 33.786 70.8613 33.6008 70.4807C33.4157 70.1001 33.2397 69.7153 33.0727 69.3263C32.9058 68.9373 32.7481 68.5447 32.5998 68.1483C32.4515 67.7519 32.3127 67.3521 32.1833 66.9491C32.0539 66.5461 31.9341 66.1403 31.8239 65.7316C31.7137 65.323 31.6132 64.9119 31.5225 64.4984C31.4318 64.085 31.351 63.6697 31.2799 63.2525C31.2089 62.8352 31.1478 62.4165 31.0965 61.9963C30.1832 64.0579 29.3723 66.0936 28.7821 68.2752C27.6449 72.4795 27.3731 77.538 28.1606 81.8274C26.3062 81.4215 24.4667 81.291 22.592 81.6787C22.2187 81.7572 21.8501 81.8537 21.4863 81.9683C21.1224 82.0829 20.765 82.2149 20.4141 82.3645C20.0343 82.5276 18.4745 83.4645 18.2334 83.4251C18.1757 81.8161 18.0756 80.1918 18.1432 78.5824C18.3686 73.2173 20.0984 67.9561 23.8004 63.971C25.8556 61.7587 28.2545 60.1886 31.0048 58.9712L31.02 58.1491C31.1665 56.7551 31.294 55.3793 31.6083 54.0099C32.5094 50.0845 34.2081 46.6312 36.5843 43.3991C37.767 41.7904 39.1065 40.2626 40.6601 39.0004C41.3289 38.4569 42.0637 37.9906 42.7255 37.442C43.5361 36.9432 44.3089 36.4049 45.1456 35.9458C48.9875 33.8373 52.75 33.1509 57.0903 33.0754C57.1349 33.0715 57.1797 33.0728 57.2243 33.0731C62.3058 33.1134 67.5434 34.6438 71.7649 37.4924C73.3386 38.5542 74.726 39.7683 76.0584 41.1151L77.7048 42.9203C78.1719 43.6317 78.7347 44.289 79.2096 44.9999C80.5919 47.0691 81.5977 49.3057 82.3341 51.6772C82.8961 53.7052 83.2537 55.7023 83.3733 57.8059C83.3834 57.9914 83.3914 58.177 83.3974 58.3628C83.4034 58.5484 83.4074 58.7342 83.4095 58.92C83.4115 59.1058 83.4115 59.2915 83.4095 59.4773C83.4076 59.6631 83.4036 59.8489 83.3977 60.0346C83.3918 60.2203 83.3838 60.4059 83.3739 60.5915C83.364 60.777 83.352 60.9624 83.3381 61.1476C83.3242 61.3329 83.3084 61.518 83.2905 61.7029C83.2726 61.8879 83.2527 62.0726 83.2309 62.2572C83.209 62.4417 83.1852 62.6259 83.1595 62.8099C83.1336 62.9939 83.1058 63.1776 83.0761 63.361C83.0463 63.5444 83.0146 63.7275 82.981 63.9102C82.9473 64.0929 82.9117 64.2752 82.874 64.4572C82.8365 64.6392 82.797 64.8207 82.7555 65.0018C82.714 65.1829 82.6706 65.3635 82.6252 65.5437C82.5799 65.7239 82.5326 65.9036 82.4834 66.0828C82.4341 66.2619 82.383 66.4405 82.3299 66.6186C82.2769 66.7967 82.2219 66.9742 82.1651 67.151C82.1082 67.3279 82.0495 67.5042 81.9888 67.6797C81.9282 67.8554 81.8657 68.0303 81.8013 68.2046C81.7369 68.3789 81.6707 68.5525 81.6025 68.7253C81.5344 68.8982 81.4644 69.0703 81.3926 69.2417C81.3208 69.413 81.2471 69.5836 81.1716 69.7534C81.0962 69.9232 81.0189 70.0921 80.9398 70.2602C80.8607 70.4283 80.7798 70.5956 80.6971 70.762C80.6144 70.9284 80.53 71.0939 80.4437 71.2585C80.3575 71.423 80.2695 71.5866 80.1797 71.7493C80.09 71.9119 79.9985 72.0736 79.9052 72.2343C79.812 72.3951 79.7171 72.5548 79.6204 72.7135C79.5237 72.8721 79.4254 73.0298 79.3254 73.1864C79.2253 73.3429 79.1236 73.4984 79.0203 73.6528C78.9169 73.8072 78.8119 73.9604 78.7052 74.1126C78.5985 74.2647 78.4903 74.4157 78.3803 74.5655C77.6128 75.6269 76.7386 76.6008 75.8667 77.5764Z" fill="#C93173"/>
<path d="M44.6506 35.8952C45.8459 35.2603 47.0469 34.6605 48.3135 34.1789C48.4849 34.1138 48.6568 34.0503 48.8295 33.9887C49.0021 33.927 49.1753 33.8672 49.3492 33.8091C49.5231 33.751 49.6975 33.6948 49.8725 33.6404C50.0476 33.5859 50.2232 33.5333 50.3993 33.4825C50.5754 33.4317 50.752 33.3827 50.9291 33.3356C51.1063 33.2884 51.2839 33.2432 51.462 33.1998C51.6401 33.1563 51.8186 33.1147 51.9975 33.0749C52.1765 33.0352 52.3558 32.9973 52.5356 32.9612C52.7153 32.9252 52.8954 32.891 53.0758 32.8587C53.2562 32.8264 53.437 32.796 53.618 32.7674C53.7991 32.7389 53.9804 32.7122 54.162 32.6874C54.3437 32.6626 54.5256 32.6396 54.7077 32.6186C54.8897 32.5976 55.072 32.5784 55.2545 32.5612C55.437 32.544 55.6196 32.5286 55.8024 32.5151C55.9853 32.5017 56.1682 32.4901 56.3512 32.4804C56.5343 32.4707 56.7174 32.463 56.9006 32.4571C57.0839 32.4512 57.2671 32.4473 57.4504 32.4452C57.6337 32.4431 57.817 32.4429 58.0003 32.4446C58.1836 32.4464 58.3668 32.45 58.5501 32.4555C58.7333 32.461 58.9165 32.4684 59.0995 32.4778C59.2826 32.4871 59.4655 32.4983 59.6483 32.5115C59.8312 32.5246 60.0139 32.5395 60.1964 32.5564C60.3789 32.5733 60.5613 32.5921 60.7434 32.6128C60.9255 32.6335 61.1074 32.656 61.2891 32.6805C61.4708 32.7049 61.6522 32.7313 61.8333 32.7594C62.0144 32.7876 62.1952 32.8177 62.3758 32.8497C62.5562 32.8816 62.7364 32.9155 62.9161 32.9512C63.0959 32.9869 63.2753 33.0244 63.4543 33.0638C63.6334 33.1032 63.812 33.1445 63.9901 33.1875C64.1683 33.2307 64.346 33.2757 64.5232 33.3225C64.7005 33.3693 64.8772 33.4179 65.0534 33.4684C65.2297 33.5188 65.4053 33.571 65.5805 33.6251C66.1974 33.8103 66.8055 34.0207 67.4048 34.2564C68.0042 34.492 68.5928 34.7521 69.1707 35.0366C69.8368 35.3632 70.4817 35.7399 71.1507 36.058C77.4069 39.8922 81.6447 45.2671 83.3694 52.4481C83.4693 52.8595 83.5594 53.2729 83.6398 53.6884C83.7201 54.104 83.7905 54.5212 83.8511 54.9401C83.9117 55.3591 83.9623 55.7792 84.003 56.2004C84.0436 56.6217 84.0743 57.0438 84.095 57.4665C84.1157 57.8893 84.1264 58.3123 84.127 58.7356C84.1277 59.1588 84.1184 59.5819 84.099 60.0047C84.0796 60.4275 84.0502 60.8496 84.0108 61.271C83.9714 61.6924 83.9221 62.1127 83.8628 62.5318C85.2786 60.7769 86.5887 59.0205 87.7235 57.0659C89.9101 53.2992 91.4819 48.4834 91.8313 44.1363C93.5175 45.0084 95.2606 45.6105 97.1717 45.7213C97.5527 45.742 97.9337 45.7442 98.3147 45.7277C98.6959 45.7112 99.0753 45.6762 99.4529 45.6225C99.862 45.5633 101.611 45.062 101.834 45.1624C101.473 46.7316 101.149 48.3264 100.668 49.8635C99.0612 54.9875 96.0288 59.6217 91.4214 62.5128C88.8637 64.1178 86.1401 65.0135 83.1685 65.4776L82.941 66.2677C82.4387 67.5764 81.9595 68.8723 81.3014 70.1136C79.4151 73.6721 76.8805 76.5681 73.7487 79.0751C72.19 80.3228 70.5007 81.4519 68.6734 82.269C67.8867 82.6208 67.0562 82.8811 66.275 83.2397C65.3629 83.5117 64.4771 83.8317 63.5501 84.0586C59.2933 85.1008 55.4814 84.7901 51.2695 83.7396C51.2254 83.7319 51.1825 83.719 51.1394 83.7071C46.2415 82.353 41.5785 79.5192 38.2381 75.675C36.9929 74.2422 35.967 72.7103 35.0285 71.0645L33.9055 68.8947C33.6384 68.0867 33.2649 67.3061 32.9902 66.4966C32.1906 64.1401 31.7978 61.7194 31.7004 59.2381C31.6824 57.1337 31.8539 55.1121 32.2828 53.0492C32.3211 52.8675 32.3614 52.6861 32.4036 52.5051C32.4459 52.3242 32.4901 52.1438 32.5362 51.9638C32.5823 51.7838 32.6304 51.6044 32.6804 51.4254C32.7304 51.2464 32.7822 51.068 32.836 50.8902C32.8898 50.7124 32.9455 50.5351 33.0032 50.3584C33.0608 50.1818 33.1203 50.0058 33.1817 49.8305C33.243 49.6551 33.3063 49.4804 33.3714 49.3064C33.4366 49.1324 33.5036 48.9591 33.5724 48.7865C33.6413 48.614 33.712 48.4421 33.7845 48.2711C33.8571 48.1 33.9314 47.9298 34.0076 47.7603C34.0838 47.5909 34.1618 47.4223 34.2416 47.2545C34.3214 47.0867 34.4031 46.9198 34.4865 46.7538C34.5699 46.5877 34.655 46.4226 34.742 46.2584C34.8289 46.0943 34.9176 45.931 35.008 45.7687C35.0985 45.6064 35.1907 45.4451 35.2846 45.2847C35.3785 45.1244 35.4742 44.9652 35.5715 44.8069C35.6688 44.6486 35.7678 44.4914 35.8685 44.3352C35.9692 44.1791 36.0716 44.0241 36.1757 43.8702C36.2796 43.7162 36.3853 43.5634 36.4926 43.4117C36.5999 43.2601 36.7088 43.1095 36.8194 42.9602C36.9299 42.8108 37.0421 42.6627 37.1557 42.5158C37.2695 42.3689 37.3848 42.2232 37.5017 42.0787C37.6185 41.9342 37.7368 41.791 37.8568 41.6491C37.9767 41.5072 38.0981 41.3666 38.2211 41.2273C38.344 41.088 38.4684 40.95 38.5943 40.8133C38.7202 40.6767 38.8475 40.5414 38.9763 40.4076C39.1051 40.2737 39.2354 40.1412 39.367 40.01C39.4987 39.8789 39.6317 39.7492 39.7662 39.621C39.9006 39.4927 40.0364 39.3659 40.1736 39.2406C40.3107 39.1152 40.4492 38.9914 40.589 38.869C40.7288 38.7466 40.8699 38.6258 41.0123 38.5064C41.1547 38.3871 41.2984 38.2693 41.4433 38.153C42.4594 37.3264 43.5559 36.6119 44.6506 35.8952Z" fill="url(#paint0_linear_1_48)"/>
<path d="M95.5966 18.2897C95.6487 16.9471 95.6421 15.8377 96.6976 14.8601C96.7371 14.8238 96.7776 14.7884 96.8189 14.7541C96.8602 14.7197 96.9024 14.6864 96.9453 14.6541C96.9883 14.6218 97.0321 14.5907 97.0766 14.5606C97.121 14.5305 97.1663 14.5015 97.2122 14.4736C97.2582 14.4457 97.3048 14.419 97.352 14.3933C97.3992 14.3678 97.4471 14.3434 97.4956 14.3202C97.5441 14.297 97.5931 14.275 97.6426 14.2542C97.6922 14.2334 97.7422 14.2139 97.7927 14.1956C97.8433 14.1772 97.8942 14.1602 97.9455 14.1444C97.9969 14.1286 98.0486 14.114 98.1007 14.1007C98.1528 14.0875 98.2052 14.0756 98.2578 14.0649C98.3105 14.0543 98.3634 14.0449 98.4165 14.0368C98.4696 14.0288 98.5229 14.022 98.5763 14.0167C98.6299 14.0113 98.6834 14.0072 98.7371 14.0044C98.7908 14.0016 98.8444 14.0001 98.8982 14C98.9519 13.9999 99.0057 14.0012 99.0593 14.0037C99.1119 14.0055 99.1644 14.0087 99.2167 14.0131C99.2691 14.0176 99.3213 14.0234 99.3734 14.0304C99.4255 14.0375 99.4774 14.0458 99.5291 14.0555C99.5808 14.0651 99.6321 14.076 99.6832 14.0882C99.7344 14.1004 99.7852 14.1139 99.8356 14.1287C99.8861 14.1434 99.9361 14.1594 99.9858 14.1766C100.035 14.1939 100.085 14.2124 100.133 14.2321C100.182 14.2517 100.23 14.2726 100.278 14.2948C100.326 14.3169 100.373 14.3402 100.419 14.3647C100.466 14.3891 100.512 14.4146 100.557 14.4414C100.602 14.4681 100.647 14.4959 100.691 14.5249C100.735 14.5539 100.778 14.5839 100.82 14.615C100.863 14.6462 100.904 14.6783 100.945 14.7115C100.986 14.7447 101.026 14.7788 101.065 14.814C101.104 14.8492 101.142 14.8853 101.179 14.9224C101.216 14.9595 101.253 14.9975 101.288 15.0364C102.022 15.8372 102.162 16.6885 102.107 17.7465C102.084 18.1871 102.088 18.6426 102.031 19.079C101.925 19.882 100.809 25.883 100.938 26.1389C101.179 25.9249 101.186 25.2937 101.233 24.9824L101.793 21.3504C101.921 20.5508 101.989 19.6343 102.258 18.8721C102.749 17.4829 104.072 16.6745 105.526 16.7637C106.386 16.8163 107.23 17.2214 107.793 17.8757C108.392 18.5715 108.63 19.4389 108.55 20.3449C108.499 20.932 108.356 21.5155 108.222 22.0881C107.387 22.4115 106.628 22.8588 106.249 23.7163C105.843 24.6361 105.699 25.7232 105.487 26.7053C105.318 27.4904 105.11 28.286 104.999 29.081L104.918 29.1069L104.998 29.1496L104.957 29.4315C105.093 29.355 105.129 29.1953 105.172 29.0496C105.616 27.5292 105.815 24.6122 106.568 23.3832C106.806 22.9939 107.169 22.6846 107.562 22.4585C108.234 22.0725 108.989 21.9712 109.738 22.1845C110.549 22.4158 111.219 22.9796 111.618 23.7194C111.923 24.2848 112.041 24.9215 111.988 25.5598C111.912 26.4554 111.588 27.3693 111.377 28.2429C110.918 30.1781 110.443 32.109 109.95 34.0357C109.601 35.419 109.382 36.8809 108.962 38.2398C108.718 39.0304 108.338 39.9583 107.722 40.5352C106.247 42.6047 104.726 43.8402 102.418 44.8975C102.231 44.9699 101.984 45.0315 101.834 45.1624C101.611 45.062 99.8621 45.5633 99.453 45.6225C99.0753 45.6762 98.6959 45.7112 98.3148 45.7277C97.9337 45.7442 97.5527 45.7421 97.1718 45.7213C95.2606 45.6105 93.5176 45.0084 91.8314 44.1363C90.4484 43.4113 89.1977 42.2327 88.2687 40.9919C87.5692 40.0573 87.0241 39.1156 86.6358 38.0121C86.2858 37.0176 86.0979 35.9835 85.8642 34.9583C85.5108 33.4542 85.1697 31.9473 84.841 30.4375L84.0629 26.907C83.859 26.0132 83.623 25.1132 83.483 24.2069C83.4299 23.8629 83.4166 23.5307 83.471 23.1846C83.6145 22.2723 84.1174 21.5138 84.8545 20.9709C85.4769 20.5125 86.3344 20.2039 87.1155 20.3113C87.4086 20.3517 87.6842 20.4763 87.9761 20.5151C88.0047 20.519 88.0333 20.5221 88.062 20.5257C88.1345 20.5635 88.2092 20.5991 88.2784 20.6427L89.06 20.2783C88.9001 19.1128 88.8229 17.9864 89.5814 16.9905C90.2149 16.1588 91.1534 15.8498 92.1474 15.7142C93.0796 15.84 93.9288 16.1303 94.5241 16.9068C95.0423 17.583 95.0642 18.2229 95.4213 18.8729C95.4682 18.6748 95.5334 18.4831 95.5966 18.2897Z" fill="#DD367E"/>
<path d="M95.5966 18.2897C95.6571 19.4513 95.5545 20.6462 95.5474 21.8114C95.5392 23.1406 95.6164 24.4857 95.5837 25.811C95.5803 25.9448 95.5809 26.0675 95.492 26.1701C95.417 26.0835 95.3968 25.9946 95.3842 25.883C95.2887 25.0386 95.3713 24.0961 95.3726 23.2431C95.3749 21.8301 95.3164 20.3734 95.4145 18.9642L95.4213 18.8729C95.4682 18.6748 95.5334 18.4831 95.5966 18.2897Z" fill="#FEFEFE"/>
<path d="M89.5096 21.5312C89.7475 21.8393 89.8888 22.1469 89.9963 22.5171C90.1523 23.0546 91.3136 29.1678 91.2949 29.3873C91.2873 29.4762 91.2727 29.5185 91.2208 29.5879C91.0902 29.5073 91.0605 29.3489 91.0276 29.2043C90.6635 27.6031 90.1677 22.6615 89.4324 21.6196L89.5096 21.5312Z" fill="#FEFEFE"/>
<path d="M89.06 20.2783C89.1181 20.7516 89.1353 21.1921 89.5096 21.5312L89.4324 21.6196C89.0544 21.2642 88.7084 20.9396 88.2784 20.6427L89.06 20.2783Z" fill="#E1BBDA"/>
<path d="M21.777 67.9998C21.5443 66.9295 21.3918 66.0381 20.4056 65.4035C20.3687 65.3799 20.3312 65.3573 20.2931 65.3356C20.255 65.3139 20.2165 65.2931 20.1774 65.2733C20.1383 65.2535 20.0987 65.2347 20.0588 65.2169C20.0188 65.1991 19.9783 65.1823 19.9375 65.1664C19.8966 65.1506 19.8554 65.1357 19.8139 65.1218C19.7723 65.108 19.7304 65.0953 19.6882 65.0836C19.646 65.0718 19.6035 65.0611 19.5608 65.0515C19.5181 65.0418 19.4751 65.0333 19.432 65.0258C19.3888 65.0182 19.3455 65.0118 19.302 65.0064C19.2586 65.001 19.215 64.9967 19.1713 64.9934C19.1276 64.9902 19.0839 64.9881 19.0401 64.987C18.9963 64.986 18.9525 64.986 18.9087 64.9871C18.8649 64.9881 18.8212 64.9903 18.7775 64.9936C18.7338 64.9969 18.6902 65.0012 18.6467 65.0066C18.6033 65.012 18.56 65.0185 18.5168 65.026C18.4736 65.0336 18.4307 65.0422 18.388 65.0518C18.3461 65.0608 18.3044 65.0708 18.263 65.0818C18.2216 65.0929 18.1805 65.1049 18.1397 65.118C18.0989 65.131 18.0584 65.1451 18.0183 65.1602C17.9782 65.1753 17.9385 65.1914 17.8992 65.2084C17.8599 65.2255 17.821 65.2436 17.7826 65.2626C17.7442 65.2816 17.7063 65.3015 17.6689 65.3224C17.6315 65.3434 17.5946 65.3652 17.5583 65.3879C17.522 65.4106 17.4863 65.4343 17.4511 65.4588C17.4159 65.4833 17.3814 65.5087 17.3476 65.535C17.3137 65.5612 17.2805 65.5883 17.248 65.6162C17.2154 65.6441 17.1836 65.6727 17.1525 65.7022C17.1214 65.7317 17.0911 65.762 17.0615 65.793C17.0319 65.824 17.0031 65.8557 16.9751 65.8881C16.9471 65.9206 16.9199 65.9537 16.8935 65.9875C16.8672 66.0213 16.8417 66.0557 16.8171 66.0907C16.7924 66.1258 16.7686 66.1615 16.7458 66.1977C16.2702 66.945 16.2794 67.6481 16.4737 68.4896C16.5546 68.8401 16.6163 69.2063 16.7246 69.5483C16.924 70.1778 18.6728 74.8362 18.6054 75.0599C18.3816 74.9224 18.2864 74.4167 18.204 74.1736L17.2387 71.3378C17.0222 70.7141 16.8372 69.9881 16.5127 69.4146C15.9212 68.3692 14.7438 67.9086 13.5899 68.1868C12.907 68.3513 12.2869 68.7966 11.9279 69.4019C11.5462 70.0456 11.4788 70.7756 11.6714 71.4915C11.7961 71.9555 11.994 72.4035 12.1827 72.8441C12.899 72.985 13.572 73.2361 13.9978 73.8705C14.4545 74.5512 14.7247 75.4032 15.0345 76.1615C15.282 76.7676 15.5617 77.3767 15.7642 77.999L15.8331 78.0083L15.7744 78.054L15.848 78.2743C15.728 78.2323 15.676 78.1092 15.6211 77.9983C15.048 76.8412 14.4741 74.5279 13.6946 73.6485C13.4478 73.3699 13.113 73.1732 12.765 73.0476C12.1707 72.8334 11.5501 72.8594 10.9795 73.1371C10.361 73.4381 9.90383 73.9859 9.68865 74.6365C9.52428 75.1337 9.52041 75.6615 9.65364 76.1663C9.84143 76.8745 10.2321 77.5619 10.5254 78.2332C11.1687 79.7214 11.8252 81.2037 12.4949 82.6801C12.9717 83.7408 13.3554 84.8832 13.8857 85.9143C14.1941 86.5141 14.6306 87.205 15.2069 87.5806C16.6857 89.0319 18.0821 89.8073 20.0852 90.3278C20.2452 90.3595 20.4528 90.3737 20.5916 90.4575C20.7561 90.3452 22.2314 90.4989 22.5682 90.4882C22.879 90.4776 23.1885 90.4518 23.4968 90.4108C23.805 90.3699 24.1105 90.314 24.4133 90.2431C25.9316 89.8824 27.2452 89.1513 28.4747 88.2115C29.4817 87.4329 30.3181 86.309 30.8873 85.1808C31.3159 84.3311 31.6195 83.4978 31.7743 82.5568C31.9139 81.7087 31.9176 80.8519 31.9594 79.9958C32.0292 78.7382 32.0887 77.4801 32.1379 76.2215L32.2605 73.2769C32.297 72.5304 32.3584 71.7744 32.3419 71.027C32.3356 70.7433 32.2991 70.4748 32.2062 70.2047C31.9613 69.4929 31.4498 68.9555 30.7809 68.6246C30.2161 68.3451 29.4839 68.2193 28.8722 68.4166C28.6427 68.4907 28.4392 68.6299 28.2104 68.7026C28.188 68.7097 28.1655 68.7163 28.143 68.7233C28.0901 68.7639 28.0352 68.8031 27.9859 68.848L27.3067 68.6666C27.2693 67.7083 27.1711 66.7932 26.4206 66.1017C25.7939 65.5241 24.9966 65.4095 24.1794 65.442C23.4491 65.6756 22.8086 66.0293 22.4412 66.7373C22.1214 67.3537 22.1949 67.8705 22.0006 68.443C21.9348 68.2907 21.8552 68.1461 21.777 67.9998Z" fill="#DD367E"/>
<path d="M21.777 67.9998C21.8936 68.9409 22.1459 69.8854 22.3173 70.8197C22.5128 71.8855 22.6421 72.9761 22.8569 74.0353C22.8786 74.1422 22.8955 74.2408 22.9815 74.3106C23.0294 74.2304 23.033 74.1561 23.0273 74.0648C22.9838 73.3734 22.7835 72.6286 22.6612 71.944C22.4584 70.8102 22.2982 69.6326 22.0191 68.5153L22.0006 68.443C21.9348 68.2907 21.8552 68.1461 21.777 67.9998Z" fill="#FEFEFE"/>
<path d="M27.1239 69.7363C26.9768 70.0174 26.9071 70.2844 26.8735 70.5968C26.8247 71.0505 26.7618 76.1226 26.808 76.2962C26.8268 76.3664 26.8445 76.3983 26.896 76.4466C26.9894 76.3634 26.9907 76.232 26.9965 76.1113C27.0611 74.7742 26.7564 70.7371 27.1985 69.7962L27.1239 69.7363Z" fill="#FEFEFE"/>
<path d="M27.3067 68.6666C27.3273 69.0548 27.3762 69.4108 27.1239 69.7363L27.1985 69.7962C27.4513 69.4571 27.683 69.1474 27.9859 68.848L27.3067 68.6666Z" fill="#E1BBDA"/>
<path d="M48.0083 68.4198C48.6641 68.5944 49.383 68.6525 50.056 68.731C53.3459 69.1145 56.7755 69.1174 60.0441 68.5448C59.8368 69.9231 59.4233 71.0847 58.4679 72.1256C57.4004 73.2662 56.0694 74.0126 54.4931 74.1342C54.4444 74.1381 54.3956 74.1414 54.3468 74.1442C54.2979 74.1469 54.249 74.149 54.2002 74.1505C54.1513 74.1519 54.1024 74.1528 54.0535 74.1531C54.0046 74.1533 53.9557 74.153 53.9068 74.152C53.8579 74.1511 53.8091 74.1495 53.7602 74.1473C53.7113 74.1452 53.6625 74.1424 53.6137 74.139C53.565 74.1356 53.5162 74.1316 53.4675 74.127C53.4188 74.1224 53.3702 74.1172 53.3217 74.1114C53.2731 74.1056 53.2246 74.0991 53.1763 74.0921C53.1278 74.0851 53.0795 74.0774 53.0313 74.0692C52.9831 74.061 52.935 74.0522 52.8871 74.0427C52.8391 74.0333 52.7912 74.0233 52.7434 74.0127C52.6957 74.002 52.6481 73.9908 52.6006 73.979C52.5532 73.9672 52.5059 73.9548 52.4588 73.9419C52.4116 73.9289 52.3646 73.9153 52.3178 73.9011C52.271 73.887 52.2244 73.8722 52.1779 73.8569C52.1315 73.8416 52.0853 73.8257 52.0392 73.8092C51.9932 73.7927 51.9473 73.7757 51.9018 73.7581C51.8561 73.7405 51.8107 73.7223 51.7656 73.7035C51.7204 73.6848 51.6754 73.6655 51.6308 73.6456C51.5861 73.6258 51.5416 73.6054 51.4975 73.5844C51.4533 73.5634 51.4094 73.5419 51.3658 73.5198C51.3221 73.4978 51.2787 73.4751 51.2357 73.452C51.1926 73.4288 51.1498 73.4051 51.1073 73.3809C51.0649 73.3567 51.0227 73.332 50.9808 73.3067C50.9389 73.2814 50.8974 73.2556 50.8562 73.2293C50.8149 73.203 50.774 73.1762 50.7335 73.1489C50.6929 73.1215 50.6527 73.0937 50.6128 73.0654C50.573 73.0371 50.5335 73.0082 50.4943 72.979C50.4552 72.9496 50.4164 72.9198 50.378 72.8896C50.3396 72.8593 50.3016 72.8286 50.264 72.7973C50.2263 72.7661 50.1891 72.7344 50.1522 72.7023C50.1137 72.6686 50.0756 72.6345 50.0379 72.5999C50.0002 72.5653 49.9629 72.5302 49.9261 72.4947C49.8892 72.4592 49.8528 72.4233 49.8168 72.3869C49.7809 72.3505 49.7453 72.3137 49.7102 72.2765C49.6751 72.2392 49.6405 72.2015 49.6064 72.1635C49.5722 72.1254 49.5385 72.0869 49.5052 72.048C49.472 72.0091 49.4393 71.9698 49.407 71.9301C49.3747 71.8904 49.3429 71.8503 49.3116 71.8098C49.2803 71.7694 49.2495 71.7285 49.2192 71.6873C49.1889 71.6461 49.159 71.6045 49.1298 71.5625C49.1005 71.5206 49.0717 71.4783 49.0434 71.4357C49.0151 71.393 48.9873 71.35 48.9601 71.3067C48.9329 71.2634 48.9062 71.2198 48.88 71.1758C48.8538 71.1318 48.8282 71.0875 48.8031 71.043C48.778 70.9984 48.7534 70.9535 48.7294 70.9083C48.7054 70.8631 48.6819 70.8177 48.659 70.7719C48.6361 70.7262 48.6138 70.6801 48.592 70.6339C48.5702 70.5875 48.549 70.541 48.5283 70.4942C48.5077 70.4473 48.4876 70.4003 48.4681 70.353C48.4486 70.3057 48.4296 70.2582 48.4113 70.2104C48.3929 70.1627 48.3751 70.1147 48.358 70.0665C48.3408 70.0183 48.3241 69.9699 48.3081 69.9214C48.2921 69.8728 48.2767 69.824 48.2618 69.775C48.247 69.726 48.2327 69.6769 48.2191 69.6276C48.2055 69.5783 48.1924 69.5288 48.18 69.4792C48.1675 69.4296 48.1557 69.3798 48.1445 69.3298C48.1332 69.2799 48.1226 69.2299 48.1126 69.1797C48.1026 69.1295 48.0932 69.0792 48.0844 69.0288C48.0756 68.9784 48.0674 68.9279 48.0598 68.8773C48.0522 68.8267 48.0453 68.776 48.0389 68.7252C48.0326 68.6745 48.0269 68.6237 48.0218 68.5727C48.0166 68.5218 48.0122 68.4709 48.0083 68.4198Z" fill="black"/>
<path d="M45.3358 51.3563C46.8567 51.2391 48.4689 51.8387 49.6467 52.7817C49.688 52.8143 49.7289 52.8475 49.7694 52.8812C49.8099 52.9148 49.85 52.949 49.8896 52.9837C49.9292 53.0184 49.9684 53.0535 50.0072 53.0892C50.046 53.1248 50.0843 53.1609 50.1222 53.1975C50.1601 53.234 50.1975 53.2711 50.2345 53.3086C50.2714 53.3461 50.3079 53.384 50.344 53.4225C50.38 53.4609 50.4156 53.4997 50.4506 53.539C50.4857 53.5783 50.5203 53.618 50.5543 53.6581C50.5884 53.6983 50.622 53.7388 50.6551 53.7798C50.6882 53.8208 50.7208 53.8621 50.7529 53.9039C50.7849 53.9457 50.8165 53.9878 50.8475 54.0304C50.8785 54.0729 50.909 54.1158 50.9389 54.1591C50.9689 54.2024 50.9984 54.2461 51.0273 54.2902C51.0561 54.3342 51.0845 54.3786 51.1123 54.4233C51.1401 54.468 51.1673 54.5131 51.194 54.5585C51.2206 54.6039 51.2468 54.6496 51.2723 54.6957C51.2979 54.7417 51.3228 54.7881 51.3473 54.8348C51.3717 54.8814 51.3955 54.9284 51.4187 54.9756C51.442 55.0229 51.4646 55.0704 51.4867 55.1182C51.5088 55.166 51.5302 55.2141 51.5511 55.2625C51.572 55.3108 51.5923 55.3594 51.6119 55.4083C51.6317 55.4571 51.6507 55.5061 51.6692 55.5554C51.6877 55.6048 51.7055 55.6543 51.7227 55.7041C51.74 55.7538 51.7566 55.8038 51.7727 55.854C51.7887 55.9041 51.8041 55.9545 51.8188 56.005C51.8336 56.0556 51.8478 56.1063 51.8613 56.1572C51.8748 56.2081 51.8877 56.2591 51.8999 56.3104C51.9122 56.3616 51.9238 56.4129 51.9348 56.4644C51.9458 56.5159 51.9562 56.5675 51.9659 56.6193C51.9756 56.6711 51.9847 56.7229 51.9931 56.7749C52.0015 56.8269 52.0093 56.879 52.0165 56.9311C52.0236 56.9833 52.0301 57.0356 52.036 57.0879C52.2194 58.8132 51.7348 60.6193 50.6365 61.9744C49.4509 63.4371 47.7935 64.2428 45.9436 64.4402C44.241 64.5336 42.6712 64.0593 41.365 62.9463C39.9979 61.7814 39.227 60.1494 39.0984 58.3659C39.0945 58.3121 39.0914 58.2583 39.0889 58.2045C39.0864 58.1507 39.0845 58.0968 39.0833 58.0429C39.0821 57.9891 39.0816 57.9352 39.0817 57.8813C39.0818 57.8274 39.0826 57.7735 39.084 57.7197C39.0854 57.6658 39.0875 57.612 39.0902 57.5581C39.0929 57.5043 39.0963 57.4505 39.1003 57.3968C39.1044 57.3431 39.109 57.2894 39.1143 57.2358C39.1197 57.1821 39.1256 57.1286 39.1322 57.0751C39.1389 57.0216 39.1462 56.9682 39.1541 56.9149C39.162 56.8616 39.1706 56.8084 39.1798 56.7553C39.189 56.7023 39.1989 56.6493 39.2094 56.5964C39.2199 56.5435 39.231 56.4908 39.2428 56.4382C39.2546 56.3856 39.267 56.3332 39.28 56.2809C39.2931 56.2286 39.3068 56.1765 39.3211 56.1246C39.3354 56.0726 39.3503 56.0209 39.3659 55.9693C39.3815 55.9177 39.3977 55.8663 39.4145 55.8151C39.4313 55.7639 39.4487 55.7129 39.4668 55.6621C39.4849 55.6114 39.5035 55.5608 39.5228 55.5105C39.5421 55.4602 39.562 55.4101 39.5825 55.3603C39.603 55.3104 39.624 55.2608 39.6457 55.2115C39.6674 55.1622 39.6897 55.1131 39.7126 55.0643C39.7355 55.0155 39.759 54.967 39.7831 54.9188C39.8071 54.8706 39.8318 54.8227 39.857 54.7751C39.8822 54.7275 39.908 54.6802 39.9344 54.6331C39.9608 54.5861 39.9877 54.5395 40.0152 54.4932C40.0427 54.4468 40.0708 54.4008 40.0994 54.3552C40.128 54.3095 40.1572 54.2642 40.1869 54.2192C40.2166 54.1743 40.2469 54.1297 40.2777 54.0855C40.3085 54.0413 40.3398 53.9975 40.3717 53.954C40.4036 53.9105 40.436 53.8675 40.4689 53.8248C40.5018 53.7821 40.5352 53.7399 40.5692 53.698C40.6031 53.6561 40.6375 53.6147 40.6725 53.5737C41.866 52.1991 43.5454 51.4831 45.3358 51.3563Z" fill="black"/>
<path d="M45.1733 51.7497C45.1882 51.7476 45.2032 51.7449 45.2182 51.7435C46.7004 51.6028 48.2712 52.1514 49.4111 53.0877C50.6309 54.0896 51.5006 55.5698 51.6526 57.1521C51.8122 58.8124 51.3719 60.4931 50.2916 61.7821C49.2353 63.0425 47.7253 63.9053 46.0746 64.048C46.0389 64.0529 46.0032 64.0572 45.9674 64.0611C44.475 64.2295 42.8814 63.682 41.7283 62.7422C41.6889 62.7098 41.6498 62.6771 41.6112 62.6438C41.5726 62.6105 41.5344 62.5768 41.4966 62.5426C41.4588 62.5083 41.4215 62.4736 41.3845 62.4385C41.3476 62.4034 41.3111 62.3678 41.2751 62.3317C41.239 62.2957 41.2034 62.2592 41.1683 62.2223C41.1332 62.1853 41.0985 62.1479 41.0643 62.1101C41.0301 62.0723 40.9963 62.0341 40.963 61.9955C40.9298 61.9568 40.897 61.9178 40.8647 61.8784C40.8324 61.8389 40.8006 61.7991 40.7694 61.7588C40.7381 61.7186 40.7072 61.678 40.6769 61.6369C40.6466 61.5959 40.6169 61.5546 40.5876 61.5129C40.5583 61.4711 40.5296 61.429 40.5013 61.3866C40.4731 61.3441 40.4454 61.3013 40.4182 61.2582C40.3911 61.215 40.3645 61.1715 40.3384 61.1277C40.3123 61.0839 40.2868 61.0398 40.2618 60.9954C40.2368 60.9509 40.2124 60.9062 40.1885 60.8611C40.1646 60.8161 40.1413 60.7707 40.1186 60.7251C40.0958 60.6795 40.0736 60.6337 40.052 60.5875C40.0304 60.5413 40.0094 60.4948 39.9889 60.4482C39.9685 60.4014 39.9486 60.3545 39.9293 60.3073C39.91 60.2601 39.8913 60.2127 39.8732 60.1651C39.8551 60.1174 39.8375 60.0695 39.8206 60.0214C39.8037 59.9734 39.7873 59.9251 39.7716 59.8766C39.7559 59.8281 39.7407 59.7794 39.7262 59.7306C39.7117 59.6816 39.6978 59.6326 39.6845 59.5834C39.6712 59.5342 39.6585 59.4848 39.6464 59.4353C39.6343 59.3857 39.6229 59.3361 39.612 59.2862C39.6012 59.2365 39.5909 59.1865 39.5813 59.1364C39.5717 59.0864 39.5627 59.0362 39.5544 58.9859C39.546 58.9356 39.5383 58.8853 39.5312 58.8348C39.5241 58.7843 39.5176 58.7337 39.5118 58.6831C39.5059 58.6324 39.5007 58.5817 39.4961 58.5309C39.4909 58.4799 39.4863 58.4289 39.4824 58.3778C39.4785 58.3266 39.4752 58.2755 39.4725 58.2243C39.4699 58.1731 39.4678 58.1219 39.4664 58.0706C39.465 58.0194 39.4642 57.9681 39.4641 57.9169C39.4639 57.8656 39.4644 57.8143 39.4655 57.7631C39.4666 57.7118 39.4683 57.6606 39.4707 57.6093C39.4731 57.5582 39.4761 57.507 39.4797 57.4559C39.4833 57.4047 39.4875 57.3536 39.4924 57.3026C39.4973 57.2516 39.5028 57.2006 39.5089 57.1497C39.5151 57.0988 39.5218 57.048 39.5292 56.9972C39.5365 56.9465 39.5445 56.8959 39.5531 56.8453C39.5618 56.7948 39.571 56.7444 39.5808 56.6941C39.5907 56.6437 39.6012 56.5936 39.6122 56.5435C39.6233 56.4935 39.635 56.4436 39.6473 56.3938C39.6596 56.344 39.6725 56.2944 39.6861 56.245C39.6996 56.1955 39.7137 56.1463 39.7285 56.0972C39.7432 56.048 39.7585 55.9991 39.7745 55.9504C39.7904 55.9017 39.8069 55.8531 39.8241 55.8048C39.8412 55.7565 39.8589 55.7084 39.8772 55.6605C39.8955 55.6126 39.9144 55.565 39.9339 55.5176C39.9534 55.4701 39.9734 55.423 39.994 55.376C40.0147 55.3291 40.0359 55.2824 40.0577 55.236C40.0794 55.1896 40.1018 55.1435 40.1247 55.0976C40.1476 55.0517 40.1711 55.0062 40.1951 54.9609C40.2192 54.9156 40.2438 54.8706 40.2689 54.8259C40.294 54.7812 40.3197 54.7369 40.3459 54.6928C40.3721 54.6488 40.3989 54.6051 40.4262 54.5617C40.4535 54.5183 40.4813 54.4752 40.5097 54.4325C40.538 54.3898 40.5669 54.3474 40.5962 54.3054C40.6257 54.2634 40.6556 54.2218 40.6859 54.1805C40.7164 54.1392 40.7473 54.0984 40.7787 54.0579C40.8101 54.0173 40.842 53.9772 40.8744 53.9375C41.9702 52.6133 43.4798 51.9063 45.1733 51.7497Z" fill="#FEFEFE"/>
<path d="M46.0579 52.998C47.1734 52.9076 48.3663 53.3598 49.2154 54.0686C50.1444 54.8441 50.76 56.0365 50.8685 57.2401C50.986 58.5411 50.62 59.8329 49.7715 60.8345C48.9128 61.8483 47.7874 62.3627 46.478 62.47C45.3151 62.4938 44.2019 62.1503 43.3066 61.3941C43.2449 61.3429 43.1845 61.2903 43.1254 61.2361C43.0662 61.1819 43.0085 61.1263 42.9522 61.0693C42.8958 61.0122 42.8409 60.9538 42.7874 60.8941C42.734 60.8343 42.682 60.7733 42.6316 60.711C42.5812 60.6487 42.5323 60.5852 42.485 60.5204C42.4377 60.4557 42.3921 60.3898 42.348 60.3228C42.304 60.2558 42.2616 60.1877 42.221 60.1186C42.1803 60.0496 42.1414 59.9795 42.1042 59.9085C42.067 59.8375 42.0315 59.7656 41.9979 59.6928C41.9642 59.62 41.9324 59.5465 41.9024 59.4721C41.8724 59.3978 41.8443 59.3227 41.818 59.247C41.7917 59.1713 41.7673 59.0949 41.7448 59.0179C41.7223 58.941 41.7017 58.8636 41.683 58.7856C41.6643 58.7076 41.6476 58.6292 41.6328 58.5504C41.618 58.4716 41.6052 58.3925 41.5943 58.3131C41.5834 58.2337 41.5745 58.154 41.5675 58.0741C41.5607 57.9971 41.5559 57.92 41.553 57.8427C41.55 57.7654 41.5489 57.6881 41.5498 57.6108C41.5507 57.5335 41.5535 57.4562 41.5583 57.379C41.563 57.3018 41.5696 57.2248 41.5782 57.148C41.5868 57.0711 41.5972 56.9945 41.6096 56.9181C41.6219 56.8418 41.6362 56.7659 41.6523 56.6902C41.6685 56.6146 41.6865 56.5394 41.7063 56.4647C41.7262 56.39 41.7479 56.3158 41.7715 56.2421C41.7951 56.1685 41.8205 56.0955 41.8476 56.0231C41.8748 55.9507 41.9038 55.879 41.9345 55.8081C41.9653 55.7371 41.9978 55.6669 42.032 55.5976C42.0662 55.5283 42.1022 55.4598 42.1398 55.3923C42.1775 55.3248 42.2168 55.2582 42.2577 55.1926C42.2987 55.127 42.3412 55.0624 42.3854 54.999C42.4296 54.9355 42.4752 54.8731 42.5225 54.8119C42.5698 54.7507 42.6185 54.6907 42.6688 54.6319C43.5463 53.6152 44.7354 53.1003 46.0579 52.998Z" fill="black"/>
<path d="M47.2622 54.8266C47.3515 54.8195 47.4515 54.8082 47.5395 54.8262C47.6744 54.8539 47.8101 54.951 47.8814 55.0681C47.9612 55.199 47.9775 55.3555 47.9397 55.5028C47.8849 55.7168 47.756 55.8259 47.5717 55.9332C47.4851 55.9389 47.3905 55.9493 47.3048 55.9324C47.1657 55.9049 47.0135 55.8069 46.9371 55.6869C46.8525 55.5542 46.8337 55.4033 46.8729 55.2518C46.9293 55.034 47.078 54.934 47.2622 54.8266Z" fill="#FEFEFE"/>
<path d="M44.4605 54.8934C44.8632 54.86 45.2193 54.8995 45.5742 55.1128C45.9626 55.3461 46.2366 55.7517 46.338 56.1911C46.3438 56.2164 46.3489 56.2419 46.3534 56.2675C46.3579 56.293 46.3618 56.3187 46.365 56.3445C46.3682 56.3703 46.3708 56.3961 46.3727 56.422C46.3746 56.4479 46.3759 56.4739 46.3765 56.4998C46.3772 56.5258 46.3772 56.5518 46.3765 56.5777C46.3759 56.6037 46.3746 56.6296 46.3726 56.6556C46.3707 56.6815 46.3681 56.7073 46.3649 56.7331C46.3617 56.7589 46.3578 56.7845 46.3533 56.8101C46.3488 56.8357 46.3437 56.8612 46.338 56.8865C46.3322 56.9118 46.3258 56.937 46.3188 56.962C46.3118 56.987 46.3041 57.0118 46.2959 57.0365C46.2876 57.0611 46.2788 57.0855 46.2693 57.1097C46.2599 57.1339 46.2498 57.1578 46.2391 57.1815C46.2285 57.2052 46.2172 57.2287 46.2054 57.2518C46.1936 57.2749 46.1812 57.2977 46.1683 57.3203C46.1554 57.3428 46.1418 57.365 46.1278 57.3868C45.8771 57.7833 45.4975 57.9982 45.0505 58.1017C44.689 58.1289 44.3553 58.1306 44.0197 57.9664C43.995 57.954 43.9706 57.941 43.9466 57.9274C43.9225 57.9137 43.8988 57.8995 43.8755 57.8847C43.8522 57.8699 43.8292 57.8545 43.8067 57.8386C43.7841 57.8226 43.762 57.806 43.7403 57.789C43.7185 57.7718 43.6973 57.7542 43.6764 57.7361C43.6556 57.7179 43.6352 57.6993 43.6153 57.6801C43.5954 57.6609 43.576 57.6412 43.5571 57.621C43.5382 57.6008 43.5198 57.5802 43.502 57.5592C43.4841 57.5381 43.4668 57.5165 43.45 57.4945C43.4333 57.4726 43.4171 57.4502 43.4014 57.4274C43.3857 57.4046 43.3707 57.3815 43.3562 57.3579C43.3417 57.3344 43.3279 57.3105 43.3146 57.2863C43.3013 57.262 43.2887 57.2374 43.2766 57.2126C43.2646 57.1877 43.2532 57.1626 43.2424 57.1371C43.2317 57.1116 43.2216 57.0859 43.2121 57.0599C43.2026 57.034 43.1938 57.0078 43.1857 56.9814C43.1775 56.9552 43.17 56.9288 43.1631 56.9022C43.1562 56.8756 43.15 56.8489 43.1445 56.822C43.139 56.7951 43.1342 56.768 43.13 56.7409C43.1259 56.7138 43.1224 56.6866 43.1197 56.6592C43.1169 56.6319 43.1148 56.6045 43.1134 56.5771C43.112 56.5497 43.1113 56.5222 43.1114 56.4948C43.1114 56.4673 43.1121 56.4399 43.1134 56.4125C43.1148 56.385 43.1169 56.3577 43.1197 56.3304C43.1225 56.3031 43.1259 56.2758 43.13 56.2487C43.1342 56.2215 43.139 56.1945 43.1446 56.1676C43.1501 56.1407 43.1563 56.114 43.1631 56.0874C43.17 56.0608 43.1776 56.0344 43.1857 56.0082C43.1939 55.982 43.2028 55.956 43.2123 55.9303C43.2218 55.9045 43.232 55.879 43.2428 55.8538C43.2536 55.8285 43.265 55.8035 43.2771 55.7789C43.2891 55.7542 43.3018 55.7299 43.3151 55.7059C43.5682 55.2531 43.9766 55.0248 44.4605 54.8934Z" fill="#FEFEFE"/>
<path d="M62.4055 51.355C62.4201 51.3528 62.4345 51.3499 62.4492 51.3484C64.1083 51.1739 65.8174 51.8045 67.0768 52.8684C67.1178 52.9032 67.1585 52.9385 67.1987 52.9742C67.2389 53.01 67.2786 53.0463 67.3179 53.0831C67.3572 53.1198 67.396 53.157 67.4344 53.1948C67.4728 53.2325 67.5107 53.2707 67.5481 53.3093C67.5856 53.348 67.6226 53.3871 67.6591 53.4266C67.6955 53.4662 67.7315 53.5062 67.767 53.5467C67.8025 53.5871 67.8375 53.628 67.872 53.6693C67.9065 53.7106 67.9405 53.7523 67.9739 53.7945C68.0074 53.8366 68.0404 53.8792 68.0728 53.9221C68.1052 53.9651 68.1371 54.0084 68.1684 54.0521C68.1998 54.0959 68.2306 54.14 68.2609 54.1845C68.2911 54.229 68.3208 54.2738 68.35 54.3191C68.3792 54.3643 68.4078 54.4099 68.4358 54.4558C68.4639 54.5017 68.4913 54.548 68.5183 54.5946C68.5452 54.6412 68.5715 54.6882 68.5972 54.7354C68.623 54.7826 68.6482 54.8302 68.6727 54.8781C68.6973 54.926 68.7213 54.9741 68.7447 55.0226C68.7681 55.0711 68.7909 55.1198 68.8131 55.1688C68.8353 55.2178 68.8569 55.2671 68.8779 55.3167C68.8989 55.3662 68.9193 55.416 68.939 55.4661C68.9588 55.5162 68.9779 55.5665 68.9964 55.617C69.0149 55.6675 69.0328 55.7183 69.0501 55.7692C69.0674 55.8202 69.0841 55.8714 69.1 55.9227C69.1161 55.9741 69.1315 56.0256 69.1462 56.0774C69.161 56.1292 69.1751 56.1811 69.1886 56.2332C69.202 56.2853 69.2149 56.3375 69.2271 56.39C69.2392 56.4424 69.2508 56.4949 69.2617 56.5477C69.2725 56.6004 69.2828 56.6532 69.2924 56.7061C69.302 56.7591 69.3109 56.8121 69.3192 56.8653C69.3275 56.9185 69.3351 56.9718 69.3421 57.0251C69.3491 57.0785 69.3554 57.1319 69.3611 57.1855C69.3667 57.239 69.3718 57.2925 69.3761 57.3462C69.5148 59.1491 68.9812 60.9148 67.7875 62.2853C66.6982 63.536 65.0398 64.361 63.384 64.4757C61.737 64.5842 60.1753 64.1277 58.8726 63.1026C58.8292 63.069 58.7862 63.0349 58.7437 63.0002C58.7011 62.9656 58.659 62.9304 58.6174 62.8947C58.5757 62.8589 58.5345 62.8227 58.4938 62.786C58.453 62.7492 58.4127 62.7119 58.3729 62.6742C58.3331 62.6364 58.2937 62.5981 58.2549 62.5594C58.216 62.5206 58.1777 62.4814 58.1398 62.4417C58.1019 62.402 58.0646 62.3618 58.0277 62.3211C57.9908 62.2805 57.9545 62.2393 57.9187 62.1977C57.8829 62.1562 57.8476 62.1142 57.8128 62.0717C57.778 62.0293 57.7438 61.9864 57.7101 61.943C57.6764 61.8997 57.6432 61.856 57.6106 61.8119C57.578 61.7678 57.546 61.7232 57.5145 61.6782C57.4831 61.6333 57.4522 61.5879 57.4218 61.5422C57.3915 61.4965 57.3617 61.4504 57.3325 61.4039C57.3033 61.3574 57.2747 61.3106 57.2467 61.2634C57.2187 61.2162 57.1913 61.1687 57.1645 61.1208C57.1377 61.0729 57.1115 61.0247 57.0859 60.9761C57.0603 60.9276 57.0353 60.8788 57.0109 60.8296C56.9865 60.7804 56.9628 60.731 56.9397 60.6812C56.9166 60.6314 56.8941 60.5814 56.8722 60.531C56.8503 60.4807 56.8291 60.4301 56.8085 60.3793C56.7879 60.3284 56.7679 60.2773 56.7486 60.2259C56.7292 60.1745 56.7106 60.1229 56.6925 60.0711C56.6745 60.0193 56.6572 59.9673 56.6404 59.915C56.6237 59.8627 56.6077 59.8102 56.5923 59.7575C56.5769 59.7049 56.5622 59.652 56.5481 59.599C56.534 59.5459 56.5206 59.4927 56.5078 59.4393C56.4951 59.386 56.483 59.3324 56.4717 59.2787C56.4603 59.2251 56.4496 59.1713 56.4395 59.1173C56.4295 59.0633 56.4201 59.0092 56.4114 58.9551C56.4028 58.9009 56.3948 58.8466 56.3875 58.7922C56.3801 58.7378 56.3735 58.6834 56.3676 58.6288C56.3616 58.5749 56.3563 58.5209 56.3517 58.4668C56.347 58.4128 56.343 58.3587 56.3397 58.3045C56.3364 58.2504 56.3337 58.1962 56.3317 58.142C56.3297 58.0878 56.3284 58.0336 56.3278 57.9793C56.3271 57.9251 56.327 57.8708 56.3277 57.8166C56.3284 57.7623 56.3297 57.7081 56.3317 57.6539C56.3337 57.5997 56.3363 57.5455 56.3396 57.4913C56.343 57.4372 56.347 57.3831 56.3516 57.329C56.3562 57.275 56.3615 57.221 56.3675 57.1671C56.3734 57.1131 56.3801 57.0593 56.3873 57.0055C56.3946 56.9517 56.4025 56.8981 56.4111 56.8445C56.4197 56.7909 56.4289 56.7375 56.4388 56.6841C56.4487 56.6308 56.4593 56.5776 56.4705 56.5245C56.4817 56.4714 56.4935 56.4185 56.506 56.3657C56.5185 56.3129 56.5316 56.2603 56.5454 56.2078C56.5592 56.1553 56.5736 56.103 56.5887 56.0509C56.6038 55.9988 56.6195 55.9469 56.6358 55.8951C56.6521 55.8434 56.6691 55.7919 56.6867 55.7405C56.7043 55.6892 56.7225 55.6381 56.7413 55.5872C56.7602 55.5364 56.7796 55.4857 56.7997 55.4353C56.8198 55.3849 56.8405 55.3348 56.8618 55.2849C56.8831 55.235 56.905 55.1854 56.9275 55.136C56.9501 55.0867 56.9732 55.0376 56.9969 54.9888C57.0207 54.9401 57.045 54.8916 57.0698 54.8434C57.0948 54.7952 57.1203 54.7473 57.1464 54.6997C57.1725 54.6521 57.1991 54.6049 57.2264 54.558C57.2536 54.5111 57.2814 54.4645 57.3098 54.4182C57.3381 54.372 57.3671 54.3261 57.3966 54.2806C57.4261 54.2351 57.4562 54.1899 57.4868 54.1451C57.5174 54.1003 57.5485 54.0559 57.5802 54.0119C57.6119 53.9678 57.6441 53.9242 57.6769 53.881C57.7097 53.8377 57.7429 53.7949 57.7767 53.7525C58.9377 52.32 60.592 51.5395 62.4055 51.355Z" fill="black"/>
<path d="M62.3431 51.749L62.3977 51.7431C62.4457 51.7387 62.4937 51.7349 62.5417 51.7316C62.5898 51.7284 62.6379 51.7257 62.686 51.7237C62.7341 51.7216 62.7822 51.7201 62.8304 51.7192C62.8786 51.7183 62.9267 51.7179 62.9749 51.7182C63.0231 51.7185 63.0712 51.7193 63.1194 51.7208C63.1675 51.7222 63.2156 51.7243 63.2637 51.7269C63.3118 51.7295 63.3599 51.7327 63.4079 51.7365C63.4559 51.7402 63.5038 51.7446 63.5517 51.7495C63.5997 51.7545 63.6475 51.76 63.6953 51.7661C63.7431 51.7722 63.7908 51.7789 63.8384 51.7862C63.886 51.7935 63.9335 51.8013 63.981 51.8097C64.0284 51.8182 64.0757 51.8272 64.1229 51.8367C64.1701 51.8463 64.2172 51.8564 64.2641 51.8672C64.3111 51.8779 64.3579 51.8892 64.4046 51.9011C64.4513 51.9129 64.4978 51.9253 64.5441 51.9383C64.5906 51.9513 64.6368 51.9649 64.6828 51.979C64.7289 51.9931 64.7747 52.0078 64.8204 52.023C64.8661 52.0382 64.9116 52.054 64.9569 52.0703C65.0022 52.0867 65.0473 52.1036 65.0922 52.121C65.1371 52.1384 65.1818 52.1564 65.2263 52.1749C65.2708 52.1935 65.315 52.2125 65.3589 52.2321C65.4029 52.2517 65.4467 52.2718 65.4902 52.2925C65.5338 52.3132 65.577 52.3344 65.62 52.3561C65.6629 52.3778 65.7057 52.4 65.7482 52.4227C65.7906 52.4455 65.8327 52.4688 65.8747 52.4926C65.9166 52.5163 65.9581 52.5406 65.9994 52.5654C66.0407 52.5902 66.0817 52.6155 66.1224 52.6413C66.1631 52.667 66.2034 52.6933 66.2435 52.7201C66.2835 52.7469 66.3232 52.7741 66.3626 52.8018C66.402 52.8296 66.441 52.8578 66.4797 52.8865C66.5184 52.9152 66.5567 52.9443 66.5947 52.9739C66.6327 53.0036 66.6703 53.0336 66.7076 53.0642C66.7473 53.0962 66.7865 53.1287 66.8254 53.1618C66.8642 53.1948 66.9027 53.2282 66.9407 53.2622C66.9788 53.2961 67.0164 53.3305 67.0536 53.3654C67.0909 53.4003 67.1276 53.4356 67.164 53.4714C67.2003 53.5071 67.2362 53.5433 67.2717 53.58C67.3071 53.6166 67.3421 53.6537 67.3766 53.6912C67.4112 53.7288 67.4453 53.7667 67.4789 53.8051C67.5125 53.8434 67.5457 53.8821 67.5783 53.9213C67.611 53.9605 67.6432 54 67.6749 54.0399C67.7066 54.0799 67.7378 54.1202 67.7685 54.1609C67.7992 54.2016 67.8294 54.2427 67.8591 54.2841C67.8888 54.3256 67.918 54.3674 67.9467 54.4096C67.9754 54.4517 68.0036 54.4943 68.0312 54.5371C68.0589 54.5799 68.086 54.6231 68.1126 54.6666C68.1391 54.7102 68.1652 54.754 68.1907 54.7982C68.2162 54.8423 68.2412 54.8868 68.2656 54.9315C68.29 54.9763 68.3139 55.0214 68.3372 55.0667C68.3605 55.1121 68.3833 55.1577 68.4055 55.2036C68.4277 55.2495 68.4493 55.2957 68.4704 55.3421C68.4914 55.3885 68.5119 55.4352 68.5319 55.4822C68.5518 55.5291 68.5711 55.5763 68.5899 55.6237C68.6087 55.6711 68.6269 55.7188 68.6445 55.7666C68.6621 55.8145 68.6791 55.8625 68.6955 55.9108C68.7119 55.9591 68.7278 56.0076 68.743 56.0563C68.7582 56.1049 68.7729 56.1537 68.787 56.2028C68.801 56.2518 68.8144 56.301 68.8273 56.3504C68.8401 56.3997 68.8523 56.4492 68.864 56.4989C68.8756 56.5485 68.8866 56.5983 68.897 56.6482C68.9074 56.6981 68.9172 56.7482 68.9264 56.7984C68.9356 56.8485 68.9442 56.8988 68.9521 56.9491C68.9601 56.9995 68.9674 57.05 68.9741 57.1005C68.9808 57.1511 68.9869 57.2017 68.9924 57.2524C68.9981 57.3035 69.0032 57.3547 69.0076 57.4059C69.0121 57.4572 69.0159 57.5085 69.0191 57.5598C69.0222 57.6112 69.0248 57.6626 69.0267 57.714C69.0286 57.7654 69.0298 57.8168 69.0304 57.8682C69.031 57.9196 69.031 57.9711 69.0304 58.0225C69.0297 58.0739 69.0284 58.1253 69.0265 58.1767C69.0245 58.2281 69.0219 58.2795 69.0187 58.3309C69.0155 58.3822 69.0117 58.4335 69.0072 58.4848C69.0027 58.536 68.9976 58.5872 68.9918 58.6383C68.9861 58.6894 68.9797 58.7405 68.9726 58.7914C68.9656 58.8424 68.958 58.8932 68.9497 58.944C68.9414 58.9948 68.9324 59.0454 68.9229 59.096C68.9134 59.1465 68.9032 59.197 68.8924 59.2472C68.8816 59.2975 68.8702 59.3477 68.8581 59.3977C68.8461 59.4477 68.8334 59.4975 68.8202 59.5472C68.8069 59.5969 68.793 59.6465 68.7785 59.6958C68.764 59.7452 68.7489 59.7943 68.7332 59.8433C68.7174 59.8923 68.701 59.9411 68.6841 59.9897C68.6672 60.0382 68.6496 60.0866 68.6315 60.1347C68.6134 60.1828 68.5946 60.2307 68.5753 60.2784C68.556 60.3261 68.536 60.3735 68.5155 60.4206C68.495 60.4678 68.4739 60.5147 68.4523 60.5614C68.4306 60.6081 68.4083 60.6544 68.3855 60.7006C68.3627 60.7466 68.3393 60.7924 68.3153 60.8379C68.2914 60.8834 68.2668 60.9287 68.2418 60.9736C68.2167 61.0185 68.191 61.0631 68.1648 61.1074C68.1387 61.1516 68.1119 61.1956 68.0846 61.2392C68.0573 61.2828 68.0295 61.326 68.0012 61.369C67.9728 61.4119 67.9439 61.4544 67.9145 61.4966C67.8851 61.5388 67.8551 61.5807 67.8247 61.6221C67.7942 61.6636 67.7633 61.7046 67.7318 61.7454C67.7003 61.786 67.6684 61.8263 67.6359 61.8662C67.6032 61.9058 67.57 61.945 67.5364 61.9838C67.5027 62.0226 67.4686 62.0609 67.434 62.0988C67.3995 62.1368 67.3644 62.1743 67.3288 62.2114C67.2933 62.2485 67.2574 62.2851 67.2209 62.3212C67.1845 62.3574 67.1476 62.3932 67.1103 62.4284C67.073 62.4637 67.0352 62.4985 66.997 62.5328C66.9589 62.5672 66.9203 62.601 66.8812 62.6344C66.8422 62.6677 66.8028 62.7006 66.763 62.733C66.7232 62.7654 66.6829 62.7973 66.6423 62.8287C66.6017 62.8601 66.5607 62.891 66.5193 62.9214C66.4779 62.9518 66.4362 62.9817 66.394 63.011C66.3519 63.0404 66.3094 63.0692 66.2666 63.0975C66.2237 63.1258 66.1806 63.1536 66.137 63.1808C66.0935 63.2081 66.0497 63.2347 66.0055 63.2609C65.9613 63.287 65.9168 63.3126 65.872 63.3377C65.8271 63.3627 65.782 63.3872 65.7366 63.4111C65.6911 63.435 65.6454 63.4584 65.5994 63.4812C65.5534 63.504 65.5071 63.5262 65.4606 63.5479C65.414 63.5695 65.3672 63.5906 65.3201 63.6111C65.2731 63.6316 65.2257 63.6515 65.1781 63.6708C65.1306 63.6901 65.0828 63.7088 65.0348 63.7269C64.9867 63.7451 64.9385 63.7626 64.89 63.7795C64.8415 63.7965 64.7929 63.8128 64.744 63.8286C64.6951 63.8443 64.646 63.8594 64.5968 63.8739C64.5476 63.8885 64.4981 63.9024 64.4485 63.9157C64.3989 63.929 64.3492 63.9416 64.2993 63.9537C64.2494 63.9658 64.1993 63.9772 64.1492 63.988C64.0989 63.9989 64.0486 64.0091 63.9982 64.0186C63.9477 64.0282 63.8972 64.0372 63.8465 64.0455C63.7959 64.0538 63.7451 64.0615 63.6943 64.0686C63.6434 64.0756 63.5924 64.0821 63.5414 64.0879C63.4904 64.0937 63.4393 64.0989 63.3882 64.1034C61.8261 64.2722 60.1949 63.6527 58.9896 62.6808C58.9501 62.6496 58.911 62.6179 58.8723 62.5856C58.8336 62.5534 58.7953 62.5207 58.7574 62.4876C58.7196 62.4544 58.6821 62.4207 58.6451 62.3866C58.608 62.3525 58.5714 62.3179 58.5353 62.2828C58.4991 62.2478 58.4634 62.2123 58.4282 62.1763C58.3929 62.1403 58.3581 62.1039 58.3238 62.0671C58.2894 62.0303 58.2556 61.993 58.2222 61.9553C58.1888 61.9176 58.1559 61.8795 58.1235 61.841C58.0911 61.8025 58.0591 61.7635 58.0277 61.7242C57.9962 61.6848 57.9653 61.6451 57.9349 61.605C57.9045 61.5649 57.8745 61.5244 57.8451 61.4835C57.8157 61.4427 57.7868 61.4014 57.7585 61.3598C57.7301 61.3182 57.7023 61.2762 57.6749 61.2339C57.6476 61.1916 57.6208 61.149 57.5946 61.106C57.5684 61.063 57.5427 61.0197 57.5176 60.9761C57.4924 60.9324 57.4679 60.8885 57.4439 60.8442C57.4198 60.7999 57.3964 60.7554 57.3735 60.7105C57.3506 60.6657 57.3283 60.6206 57.3065 60.5751C57.2848 60.5297 57.2636 60.484 57.243 60.4381C57.2224 60.3921 57.2024 60.3459 57.183 60.2995C57.1636 60.253 57.1447 60.2063 57.1265 60.1594C57.1082 60.1124 57.0905 60.0653 57.0735 60.0179C57.0565 59.9705 57.04 59.9229 57.0242 59.8751C57.0083 59.8273 56.9931 59.7793 56.9784 59.7311C56.9638 59.683 56.9498 59.6346 56.9364 59.5861C56.923 59.5375 56.9102 59.4889 56.898 59.44C56.8858 59.3911 56.8742 59.3421 56.8633 59.2929C56.8524 59.2438 56.8421 59.1945 56.8323 59.1451C56.8227 59.0957 56.8136 59.0462 56.8052 58.9965C56.7967 58.9469 56.7889 58.8971 56.7817 58.8473C56.7745 58.7974 56.768 58.7475 56.7621 58.6975C56.7562 58.6475 56.7509 58.5974 56.7462 58.5473C56.7408 58.4969 56.736 58.4463 56.7318 58.3958C56.7276 58.3452 56.7241 58.2947 56.7211 58.244C56.7182 58.1934 56.7158 58.1427 56.7141 58.092C56.7124 58.0413 56.7113 57.9906 56.7109 57.9398C56.7104 57.8891 56.7106 57.8384 56.7114 57.7877C56.7122 57.737 56.7136 57.6863 56.7156 57.6356C56.7176 57.5848 56.7202 57.5342 56.7235 57.4836C56.7268 57.433 56.7307 57.3824 56.7352 57.3319C56.7397 57.2813 56.7448 57.2309 56.7506 57.1805C56.7563 57.1301 56.7627 57.0797 56.7697 57.0295C56.7766 56.9792 56.7842 56.929 56.7925 56.879C56.8007 56.829 56.8095 56.779 56.8189 56.7291C56.8284 56.6793 56.8384 56.6296 56.8491 56.58C56.8597 56.5304 56.871 56.481 56.8829 56.4316C56.8947 56.3823 56.9072 56.3331 56.9203 56.2841C56.9333 56.2351 56.947 56.1863 56.9613 56.1376C56.9755 56.0889 56.9904 56.0404 57.0059 55.9921C57.0214 55.9437 57.0374 55.8956 57.0541 55.8477C57.0707 55.7998 57.0879 55.7521 57.1058 55.7045C57.1236 55.6571 57.142 55.6098 57.1609 55.5627C57.1799 55.5157 57.1994 55.4689 57.2196 55.4223C57.2397 55.3757 57.2604 55.3294 57.2816 55.2834C57.3029 55.2374 57.3247 55.1916 57.3471 55.146C57.3695 55.1005 57.3924 55.0552 57.4159 55.0103C57.4394 54.9653 57.4634 54.9206 57.488 54.8763C57.5126 54.8319 57.5377 54.7878 57.5634 54.7441C57.5891 54.7003 57.6153 54.6569 57.642 54.6138C57.6687 54.5706 57.696 54.5279 57.7237 54.4854C57.7515 54.443 57.7798 54.4009 57.8086 54.3591C57.8375 54.3174 57.8668 54.276 57.8966 54.2349C57.9265 54.1939 57.9568 54.1533 57.9876 54.113C58.0185 54.0727 58.0498 54.0328 58.0815 53.9932C59.1683 52.669 60.6494 51.9233 62.3431 51.749Z" fill="#FEFEFE"/>
<path d="M62.1463 52.9978C63.287 53.0161 64.4229 53.4092 65.2732 54.1805C66.2195 55.039 66.8097 56.2141 66.8633 57.4979C66.8668 57.576 66.8683 57.6541 66.8679 57.7322C66.8675 57.8104 66.8652 57.8885 66.861 57.9666C66.8567 58.0446 66.8505 58.1225 66.8423 58.2003C66.8342 58.278 66.8241 58.3554 66.8121 58.4327C66.8001 58.5099 66.7862 58.5868 66.7704 58.6633C66.7545 58.7399 66.7368 58.816 66.7173 58.8917C66.6976 58.9674 66.6762 59.0425 66.6528 59.1171C66.6294 59.1917 66.6042 59.2656 66.5772 59.339C66.5502 59.4123 66.5214 59.4849 66.4907 59.5568C66.4601 59.6288 66.4277 59.6999 66.3935 59.7702C66.3594 59.8405 66.3235 59.9099 66.2859 59.9784C66.2482 60.0469 66.2089 60.1144 66.1679 60.181C66.1269 60.2475 66.0843 60.313 66.0401 60.3775C65.9959 60.4419 65.9501 60.5052 65.9027 60.5674C65.8553 60.6295 65.8064 60.6905 65.7559 60.7502C65.7055 60.8099 65.6537 60.8684 65.6003 60.9255C64.6965 61.9013 63.5694 62.3968 62.2427 62.4475C62.1727 62.4496 62.1027 62.45 62.0328 62.4489C61.9628 62.4478 61.8928 62.445 61.823 62.4406C61.7531 62.4361 61.6834 62.4301 61.6138 62.4224C61.5442 62.4148 61.4749 62.4055 61.4057 62.3946C61.3366 62.3837 61.2677 62.3712 61.1992 62.3571C61.1306 62.343 61.0624 62.3273 60.9946 62.31C60.9267 62.2927 60.8593 62.2739 60.7924 62.2534C60.7254 62.233 60.659 62.2111 60.5931 62.1876C60.5272 62.164 60.4618 62.1389 60.3971 62.1124C60.3323 62.0858 60.2682 62.0578 60.2047 62.0282C60.1413 61.9987 60.0785 61.9677 60.0165 61.9352C59.9545 61.9027 59.8933 61.8688 59.8329 61.8334C59.7724 61.7981 59.7129 61.7614 59.6542 61.7232C59.5954 61.6851 59.5377 61.6457 59.4808 61.6049C59.424 61.5641 59.3681 61.5219 59.3132 61.4785C59.2583 61.4351 59.2044 61.3905 59.1515 61.3445C59.0919 61.2924 59.0336 61.2389 58.9766 61.1839C58.9196 61.1289 58.864 61.0725 58.8098 61.0148C58.7556 60.9571 58.7028 60.898 58.6515 60.8378C58.6002 60.7775 58.5504 60.7159 58.502 60.6531C58.4537 60.5904 58.407 60.5265 58.3619 60.4614C58.3167 60.3964 58.2732 60.3302 58.2313 60.2631C58.1894 60.1959 58.1491 60.1277 58.1106 60.0585C58.072 59.9893 58.0352 59.9193 58.0001 59.8482C57.9649 59.7773 57.9316 59.7055 57.9 59.6329C57.8684 59.5602 57.8386 59.4869 57.8106 59.4128C57.7827 59.3388 57.7565 59.264 57.7322 59.1886C57.7079 59.1133 57.6854 59.0374 57.6648 58.9609C57.6443 58.8844 57.6256 58.8075 57.6087 58.7301C57.5919 58.6527 57.577 58.575 57.5641 58.4969C57.5511 58.4187 57.54 58.3403 57.5309 58.2617C57.5218 58.183 57.5146 58.1042 57.5093 58.0252C57.5043 57.9477 57.5013 57.8702 57.5001 57.7925C57.4989 57.7149 57.4997 57.6373 57.5023 57.5598C57.505 57.4822 57.5096 57.4047 57.5161 57.3274C57.5226 57.25 57.5309 57.1729 57.5412 57.0959C57.5515 57.019 57.5637 56.9424 57.5778 56.866C57.5919 56.7897 57.6078 56.7137 57.6256 56.6382C57.6434 56.5626 57.6631 56.4876 57.6847 56.413C57.7062 56.3384 57.7295 56.2644 57.7547 56.191C57.7799 56.1175 57.8068 56.0448 57.8356 55.9727C57.8644 55.9006 57.8949 55.8292 57.9272 55.7587C57.9595 55.6881 57.9935 55.6183 58.0292 55.5494C58.065 55.4805 58.1023 55.4125 58.1414 55.3454C58.1805 55.2784 58.2212 55.2123 58.2636 55.1473C58.3059 55.0822 58.3498 55.0182 58.3952 54.9553C58.4407 54.8924 58.4878 54.8307 58.5363 54.7701C58.5849 54.7095 58.6349 54.6502 58.6863 54.5921C59.6 53.5571 60.7878 53.0808 62.1463 52.9978Z" fill="black"/>
<path d="M63.5398 54.6282C63.6294 54.6213 63.7263 54.6094 63.8156 54.6216C63.9567 54.6408 64.095 54.7362 64.1713 54.8548C64.2525 54.9811 64.2674 55.1283 64.2315 55.2721C64.1783 55.4848 64.0468 55.5961 63.865 55.7034C63.7837 55.7109 63.6945 55.7233 63.6134 55.7101C63.4613 55.6856 63.3006 55.5744 63.2232 55.442C63.1481 55.3134 63.1322 55.1666 63.1736 55.0239C63.2307 54.8268 63.3705 54.7269 63.5398 54.6282Z" fill="#FEFEFE"/>
<path d="M60.6338 54.9632C60.9898 54.936 61.3436 55.0063 61.6473 55.1999C62.014 55.4337 62.2553 55.8157 62.3512 56.236C62.4533 56.6831 62.3785 57.1365 62.124 57.5199C61.8461 57.9381 61.4663 58.1141 60.9901 58.2043C60.5899 58.2158 60.236 58.1673 59.8942 57.9368C59.5226 57.6863 59.2758 57.275 59.1997 56.8362C59.1949 56.8093 59.1908 56.7823 59.1874 56.7552C59.184 56.7281 59.1812 56.7009 59.1792 56.6737C59.1772 56.6465 59.1758 56.6192 59.1751 56.5919C59.1745 56.5646 59.1745 56.5373 59.1753 56.51C59.176 56.4827 59.1774 56.4554 59.1795 56.4282C59.1816 56.401 59.1844 56.3738 59.1879 56.3467C59.1914 56.3197 59.1956 56.2927 59.2004 56.2658C59.2053 56.2389 59.2108 56.2122 59.217 56.1856C59.2232 56.159 59.2301 56.1326 59.2377 56.1064C59.2452 56.0801 59.2534 56.0541 59.2623 56.0283C59.2711 56.0024 59.2807 55.9768 59.2909 55.9515C59.301 55.9261 59.3118 55.9011 59.3232 55.8763C59.3347 55.8515 59.3467 55.827 59.3594 55.8028C59.3721 55.7786 59.3854 55.7548 59.3993 55.7313C59.4132 55.7078 59.4277 55.6846 59.4427 55.6618C59.4578 55.639 59.4734 55.6166 59.4896 55.5947C59.775 55.209 60.172 55.0324 60.6338 54.9632Z" fill="#FEFEFE"/>
<path d="M133.458 39.1328H141.469V49.1367C140.512 49.4668 139.416 49.7376 138.181 49.9492C136.945 50.1523 135.65 50.2539 134.296 50.2539C132.51 50.2539 130.944 49.9069 129.599 49.2129C128.253 48.5189 127.203 47.4652 126.45 46.0518C125.697 44.6299 125.32 42.8356 125.32 40.6689C125.32 38.7223 125.693 37.0423 126.438 35.6289C127.182 34.207 128.278 33.111 129.726 32.3408C131.181 31.5622 132.963 31.1729 135.07 31.1729C136.23 31.1729 137.33 31.2829 138.371 31.5029C139.412 31.723 140.318 32.0023 141.088 32.3408L139.501 36.2764C138.832 35.9463 138.138 35.7008 137.419 35.54C136.7 35.3708 135.925 35.2861 135.096 35.2861C133.987 35.2861 133.094 35.5358 132.417 36.0352C131.748 36.5345 131.262 37.2031 130.957 38.041C130.652 38.8704 130.5 39.7887 130.5 40.7959C130.5 41.9469 130.661 42.9202 130.982 43.7158C131.312 44.5029 131.791 45.1038 132.417 45.5186C133.052 45.9248 133.818 46.1279 134.715 46.1279C135.011 46.1279 135.371 46.1068 135.794 46.0645C136.226 46.0221 136.551 45.9714 136.771 45.9121V43.0049H133.458V39.1328ZM162.619 40.6943C162.619 42.1247 162.446 43.4281 162.099 44.6045C161.76 45.7725 161.227 46.7796 160.499 47.626C159.771 48.4723 158.836 49.124 157.693 49.5811C156.551 50.0296 155.184 50.2539 153.593 50.2539C152.035 50.2539 150.686 50.0296 149.543 49.5811C148.409 49.124 147.474 48.4766 146.737 47.6387C146.001 46.7923 145.455 45.7809 145.1 44.6045C144.744 43.4281 144.566 42.1162 144.566 40.6689C144.566 38.7393 144.884 37.0635 145.519 35.6416C146.162 34.2113 147.152 33.1068 148.489 32.3281C149.826 31.541 151.536 31.1475 153.618 31.1475C155.734 31.1475 157.452 31.541 158.772 32.3281C160.101 33.1152 161.075 34.224 161.692 35.6543C162.31 37.0846 162.619 38.7646 162.619 40.6943ZM149.848 40.6943C149.848 41.8115 149.975 42.7721 150.229 43.5762C150.482 44.3802 150.884 44.998 151.435 45.4297C151.985 45.8613 152.704 46.0771 153.593 46.0771C154.515 46.0771 155.247 45.8613 155.789 45.4297C156.339 44.998 156.733 44.3802 156.97 43.5762C157.215 42.7721 157.338 41.8115 157.338 40.6943C157.338 39.0186 157.059 37.694 156.5 36.7207C155.941 35.7474 154.981 35.2607 153.618 35.2607C152.713 35.2607 151.98 35.4808 151.422 35.9209C150.872 36.361 150.47 36.9873 150.216 37.7998C149.97 38.6123 149.848 39.5771 149.848 40.6943ZM183.338 40.6943C183.338 42.1247 183.164 43.4281 182.817 44.6045C182.479 45.7725 181.946 46.7796 181.218 47.626C180.49 48.4723 179.555 49.124 178.412 49.5811C177.27 50.0296 175.903 50.2539 174.312 50.2539C172.754 50.2539 171.404 50.0296 170.262 49.5811C169.128 49.124 168.192 48.4766 167.456 47.6387C166.72 46.7923 166.174 45.7809 165.818 44.6045C165.463 43.4281 165.285 42.1162 165.285 40.6689C165.285 38.7393 165.603 37.0635 166.237 35.6416C166.881 34.2113 167.871 33.1068 169.208 32.3281C170.545 31.541 172.255 31.1475 174.337 31.1475C176.453 31.1475 178.171 31.541 179.491 32.3281C180.82 33.1152 181.793 34.224 182.411 35.6543C183.029 37.0846 183.338 38.7646 183.338 40.6943ZM170.566 40.6943C170.566 41.8115 170.693 42.7721 170.947 43.5762C171.201 44.3802 171.603 44.998 172.153 45.4297C172.703 45.8613 173.423 46.0771 174.312 46.0771C175.234 46.0771 175.966 45.8613 176.508 45.4297C177.058 44.998 177.451 44.3802 177.688 43.5762C177.934 42.7721 178.057 41.8115 178.057 40.6943C178.057 39.0186 177.777 37.694 177.219 36.7207C176.66 35.7474 175.7 35.2607 174.337 35.2607C173.431 35.2607 172.699 35.4808 172.141 35.9209C171.59 36.361 171.188 36.9873 170.935 37.7998C170.689 38.6123 170.566 39.5771 170.566 40.6943ZM202.444 40.3262C202.444 42.4844 202.042 44.2786 201.238 45.709C200.434 47.1393 199.3 48.2142 197.836 48.9336C196.38 49.6445 194.666 50 192.694 50H186.689V31.4395H193.113C195.111 31.4395 196.803 31.7822 198.191 32.4678C199.579 33.1533 200.633 34.1562 201.353 35.4766C202.08 36.7969 202.444 38.4134 202.444 40.3262ZM197.239 40.5039C197.239 39.3783 197.087 38.4473 196.782 37.7109C196.486 36.9661 196.037 36.4118 195.437 36.0479C194.836 35.6755 194.078 35.4893 193.164 35.4893H191.704V45.8867H192.821C194.345 45.8867 195.462 45.4466 196.173 44.5664C196.884 43.6777 197.239 42.3236 197.239 40.5039ZM205.783 31.4395H212.258C214.941 31.4395 216.854 31.8372 217.996 32.6328C219.139 33.4284 219.71 34.571 219.71 36.0605C219.71 36.873 219.562 37.5628 219.266 38.1299C218.978 38.6969 218.61 39.1455 218.161 39.4756C217.721 39.8057 217.268 40.0299 216.803 40.1484V40.2754C217.311 40.4023 217.814 40.6139 218.313 40.9102C218.821 41.1979 219.24 41.6338 219.57 42.2178C219.909 42.7933 220.078 43.5762 220.078 44.5664C220.078 45.6921 219.79 46.6611 219.215 47.4736C218.648 48.2861 217.835 48.9124 216.777 49.3525C215.719 49.7842 214.463 50 213.007 50H205.783V31.4395ZM210.798 38.5615H212.309C213.138 38.5615 213.722 38.3923 214.061 38.0537C214.399 37.7067 214.568 37.2878 214.568 36.7969C214.568 36.2891 214.374 35.904 213.984 35.6416C213.604 35.3708 213.011 35.2354 212.207 35.2354H210.798V38.5615ZM210.798 42.2305V46.1279H212.562C213.434 46.1279 214.044 45.9417 214.391 45.5693C214.738 45.1885 214.911 44.7145 214.911 44.1475C214.911 43.8174 214.835 43.5085 214.683 43.2207C214.539 42.9245 214.289 42.6875 213.934 42.5098C213.578 42.3236 213.087 42.2305 212.461 42.2305H210.798ZM229.93 38.3203L233.129 31.4395H238.562L232.456 42.751V50H227.403V42.9033L221.297 31.4395H226.756L229.93 38.3203ZM251.588 50H240.568V31.4395H251.588V35.4639H245.583V38.3838H251.144V42.4082H245.583V45.9121H251.588V50ZM137.025 85H126.006V66.4395H137.025V70.4639H131.021V73.3838H136.581V77.4082H131.021V80.9121H137.025V85ZM140.275 85V66.4395H145.29V80.9502H152.438V85H140.275ZM166.428 85H155.408V66.4395H166.428V70.4639H160.423V73.3838H165.983V77.4082H160.423V80.9121H166.428V85ZM177.765 85L173.969 71.6318H173.854C173.888 71.9788 173.922 72.4486 173.956 73.041C173.998 73.6335 174.036 74.2725 174.07 74.958C174.104 75.6436 174.121 76.3037 174.121 76.9385V85H169.678V66.4395H176.355L180.228 79.6172H180.329L184.125 66.4395H190.815V85H186.207V76.8623C186.207 76.2783 186.215 75.652 186.232 74.9834C186.258 74.3063 186.283 73.6715 186.309 73.0791C186.342 72.4782 186.372 72.0042 186.397 71.6572H186.283L182.538 85H177.765ZM205.834 85H194.814V66.4395H205.834V70.4639H199.829V73.3838H205.39V77.4082H199.829V80.9121H205.834V85ZM226.756 85H220.18L213.4 71.9238H213.286C213.328 72.3216 213.367 72.7998 213.4 73.3584C213.434 73.917 213.464 74.4883 213.489 75.0723C213.515 75.6478 213.527 76.1683 213.527 76.6338V85H209.084V66.4395H215.635L222.389 79.3379H222.465C222.439 78.9316 222.414 78.4619 222.389 77.9287C222.363 77.387 222.338 76.8411 222.312 76.291C222.296 75.7409 222.287 75.2542 222.287 74.8311V66.4395H226.756V85ZM238.956 85H233.941V70.54H229.409V66.4395H243.476V70.54H238.956V85ZM263.496 75.6943C263.496 77.1247 263.323 78.4281 262.976 79.6045C262.637 80.7725 262.104 81.7796 261.376 82.626C260.648 83.4723 259.713 84.124 258.57 84.5811C257.428 85.0296 256.061 85.2539 254.47 85.2539C252.912 85.2539 251.562 85.0296 250.42 84.5811C249.286 84.124 248.351 83.4766 247.614 82.6387C246.878 81.7923 246.332 80.7809 245.977 79.6045C245.621 78.4281 245.443 77.1162 245.443 75.6689C245.443 73.7393 245.761 72.0635 246.396 70.6416C247.039 69.2113 248.029 68.1068 249.366 67.3281C250.703 66.541 252.413 66.1475 254.495 66.1475C256.611 66.1475 258.329 66.541 259.649 67.3281C260.978 68.1152 261.951 69.224 262.569 70.6543C263.187 72.0846 263.496 73.7646 263.496 75.6943ZM250.725 75.6943C250.725 76.8115 250.852 77.7721 251.105 78.5762C251.359 79.3802 251.761 79.998 252.312 80.4297C252.862 80.8613 253.581 81.0771 254.47 81.0771C255.392 81.0771 256.124 80.8613 256.666 80.4297C257.216 79.998 257.61 79.3802 257.847 78.5762C258.092 77.7721 258.215 76.8115 258.215 75.6943C258.215 74.0186 257.936 72.694 257.377 71.7207C256.818 70.7474 255.858 70.2607 254.495 70.2607C253.59 70.2607 252.857 70.4808 252.299 70.9209C251.749 71.361 251.347 71.9873 251.093 72.7998C250.847 73.6123 250.725 74.5771 250.725 75.6943ZM272.929 66.4395C274.613 66.4395 276.014 66.6468 277.131 67.0615C278.248 67.4678 279.086 68.0771 279.645 68.8896C280.212 69.7021 280.495 70.7135 280.495 71.9238C280.495 72.6771 280.368 73.3626 280.114 73.9805C279.86 74.5983 279.496 75.1527 279.022 75.6436C278.557 76.126 277.998 76.5492 277.347 76.9131L282.755 85H277.067L273.132 78.2461H271.862V85H266.848V66.4395H272.929ZM272.853 70.2354H271.862V74.4756H272.802C273.572 74.4756 274.202 74.3063 274.693 73.9678C275.184 73.6292 275.43 73.0241 275.43 72.1523C275.43 71.5514 275.227 71.0817 274.82 70.7432C274.414 70.4046 273.758 70.2354 272.853 70.2354Z" fill="#1E1E1E"/>
<defs>
<linearGradient id="paint0_linear_1_48" x1="55.1541" y1="86.3242" x2="71.7217" y2="18.4605" gradientUnits="userSpaceOnUse">
<stop stop-color="#DD367E"/>
<stop offset="1" stop-color="#771D44"/>
</linearGradient>
</defs>
</svg>
